<svg width="28" height="28" viewBox="0 0 28 28" fill="none" xmlns="http://www.w3.org/2000/svg">
<path d="M18.8587 1.5692C19.8641 0.564194 21.2275 -0.00026244 22.6491 9.15374e-08C24.0706 0.000262623 25.4339 0.565223 26.4389 1.5706C27.4439 2.57597 28.0083 3.9394 28.0081 5.36095C28.0078 6.7825 27.4428 8.14572 26.4375 9.15072L25.7823 9.80585L18.2036 2.22712L18.8587 1.572V1.5692ZM16.2242 4.20649L1.81991 18.608C1.62548 18.8033 1.49303 19.0517 1.43915 19.322L0.0281151 26.3211C-0.0179188 26.5474 -0.0072944 26.7814 0.0590421 27.0026C0.125379 27.2237 0.245368 27.4249 0.408324 27.5884C0.57128 27.752 0.772145 27.8726 0.993029 27.9397C1.21391 28.0068 1.44796 28.0182 1.67433 27.973L8.68472 26.5731C8.9553 26.5185 9.20369 26.385 9.39863 26.1896L23.803 11.7852L16.2242 4.20649Z" fill="#4B535A"/>
</svg>
