<svg width="24" height="24" viewBox="0 0 24 24" fill="none" xmlns="http://www.w3.org/2000/svg">
<path fill-rule="evenodd" clip-rule="evenodd" d="M12 12C14.7623 12 17 9.76228 17 7C17 4.23772 14.7623 2 12 2C9.23772 2 7 4.23772 7 7C7 9.76228 9.23772 12 12 12ZM3 21C3 21.5523 3.44772 22 4 22H20C20.5523 22 21 21.5523 21 21V19C21 15.9353 16.169 14 12 14C7.83098 14 3 15.9353 3 19V21Z" fill="#393939"/>
<mask id="mask0_54_2872" style="mask-type:luminance" maskUnits="userSpaceOnUse" x="3" y="2" width="18" height="20">
<path fill-rule="evenodd" clip-rule="evenodd" d="M12 12C14.7623 12 17 9.76228 17 7C17 4.23772 14.7623 2 12 2C9.23772 2 7 4.23772 7 7C7 9.76228 9.23772 12 12 12ZM3 21C3 21.5523 3.44772 22 4 22H20C20.5523 22 21 21.5523 21 21V19C21 15.9353 16.169 14 12 14C7.83098 14 3 15.9353 3 19V21Z" fill="white"/>
</mask>
<g mask="url(#mask0_54_2872)">
<rect width="24" height="24" fill="#393939"/>
</g>
</svg>
